<svg width="212" height="239" viewBox="0 0 212 239" fill="none" xmlns="http://www.w3.org/2000/svg">
<g opacity="0.2" filter="url(#filter0_f_1_3400)">
<ellipse cx="106.226" cy="214.211" rx="19.6088" ry="4.52511" fill="#191919"/>
</g>
<path d="M38.3484 147.019C-14.0993 104.226 5.72021 62.8324 1.12821 5.85411C0.915232 3.21148 3.17378 1.01139 5.77609 1.51868C37.0484 7.61482 89.8504 32.0808 101.179 92.0187C106.295 119.086 103.698 156.189 103.649 202.177C103.647 203.504 101.945 204.058 101.149 202.995C91.6123 190.246 88.2818 187.762 38.3484 147.019Z" fill="url(#paint0_linear_1_3400)"/>
<path d="M35.1546 142.51C-9.80635 105.633 5.1984 53.9422 3.38894 7.80403C3.28749 5.21731 5.52091 3.12851 8.05736 3.64666C37.3725 9.63514 88.9527 34.9257 99.4353 90.3856C104.155 115.355 103.816 158.475 103.886 201.427C103.888 202.786 102.101 203.342 101.299 202.246C91.0655 188.261 78.0623 177.704 35.1546 142.51Z" fill="url(#paint1_linear_1_3400)"/>
<g opacity="0.6">
<path d="M103.906 202.305L103.781 153.199C103.764 146.626 102.347 140.052 99.1324 134.316C61.625 67.3792 3.40502 81.8227 3.40502 81.8227C3.40502 81.8227 4.24618 118.629 34.4915 142.366C51.7853 155.939 56.9177 161.695 74.2077 175.273C87.9869 186.093 96.9389 197.3 101.135 203.159C101.949 204.295 103.91 203.701 103.906 202.305Z" fill="url(#paint2_linear_1_3400)"/>
<path d="M103.906 202.305L103.781 153.199C103.764 146.626 102.347 140.052 99.1324 134.316C61.625 67.3792 3.40502 81.8227 3.40502 81.8227C3.40502 81.8227 4.24618 118.629 34.4915 142.366C51.7853 155.939 56.9177 161.695 74.2077 175.273C87.9869 186.093 96.9389 197.3 101.135 203.159C101.949 204.295 103.91 203.701 103.906 202.305Z" fill="url(#paint3_radial_1_3400)"/>
</g>
<path d="M102.092 141.258C85.7659 106.031 50.1729 75.4904 9.58147 81.1417C8.9023 81.2273 8.18591 81.0447 7.52087 81.1481C8.18609 81.0456 8.90367 81.2313 9.58302 81.1469C49.4415 76.5759 85.2399 106.989 99.8512 142.313C100.73 144.252 103.03 149.119 103.03 149.119L102.395 145.022C102.395 145.022 103.063 143.187 102.092 141.258Z" fill="url(#paint4_linear_1_3400)"/>
<path d="M102.767 140.79C86.4412 105.563 50.8567 75.4865 10.2652 81.1378C9.58604 81.2235 8.86965 81.0409 8.20461 81.1442C8.86983 81.0418 9.58742 81.2274 10.2668 81.1431C50.9885 75.585 85.9151 106.522 100.526 141.845C101.405 143.784 103.706 148.651 103.706 148.651L103.07 144.554C103.07 144.554 103.738 142.719 102.767 140.79Z" fill="#3F3F3F"/>
<path d="M1.39453 5.85649C1.18302 3.21375 3.44164 1.01327 6.04395 1.52055C37.3163 7.61683 90.1183 32.0829 101.447 92.0206C106.554 119.036 104.725 157.594 104.713 203.557C104.713 204.91 102.96 205.442 102.192 204.328C101.715 203.636 101.253 202.971 100.8 202.326C98.7031 199.457 95.6309 195.543 91.5742 191.119C83.8866 183.317 70.7761 172.684 38.8799 147.275C-14.3523 104.87 5.95751 62.8711 1.39453 5.85649Z" fill="url(#paint5_radial_1_3400)"/>
<path d="M172.532 146.153C223.783 106.677 208.232 65.4151 210.217 4.62012C210.283 2.58962 208.88 0.784173 206.848 0.809952C184.042 1.09936 118.626 31.8471 111.365 92.4667C107.933 121.127 106.722 156.621 107.83 202.663C107.86 203.914 109.405 204.469 110.211 203.513C121.691 189.887 123.373 184.018 172.532 146.153Z" fill="url(#paint6_radial_1_3400)"/>
<path d="M172.532 146.153C223.783 106.677 208.232 65.4151 210.217 4.62012C210.283 2.58962 208.88 0.784173 206.848 0.809952C184.042 1.09936 118.626 31.8471 111.365 92.4667C107.933 121.127 106.722 156.621 107.83 202.663C107.86 203.914 109.405 204.469 110.211 203.513C121.691 189.887 123.373 184.018 172.532 146.153Z" fill="url(#paint7_radial_1_3400)"/>
<path d="M176.976 140.967C221.937 104.089 206.932 52.3984 208.742 6.26019C208.843 3.67347 206.61 1.58468 204.073 2.10282C174.758 8.0913 123.178 33.3819 112.696 88.8417C107.976 113.811 108.315 156.931 108.245 199.883C108.242 201.242 110.029 201.798 110.832 200.702C121.065 186.717 134.069 176.16 176.976 140.967Z" fill="url(#paint8_linear_1_3400)"/>
<path d="M108.231 201.229L108.358 151.656C108.375 145.082 109.792 138.509 113.006 132.773C150.514 65.8359 208.734 80.2794 208.734 80.2794C208.734 80.2794 207.587 117.928 177.342 141.665C160.048 155.238 156.261 158.158 138.847 172.764C124.988 184.389 115.276 196.277 110.876 202.094C110.056 203.178 108.228 202.588 108.231 201.229Z" fill="url(#paint9_linear_1_3400)"/>
<path d="M108.231 201.229L108.358 151.656C108.375 145.082 109.792 138.509 113.006 132.773C150.514 65.8359 208.734 80.2794 208.734 80.2794C208.734 80.2794 207.587 117.928 177.342 141.665C160.048 155.238 156.261 158.158 138.847 172.764C124.988 184.389 115.276 196.277 110.876 202.094C110.056 203.178 108.228 202.588 108.231 201.229Z" fill="url(#paint10_radial_1_3400)"/>
<path d="M110.048 139.714C126.375 104.487 161.968 73.9465 202.559 79.5978C203.238 79.6835 203.955 79.5009 204.62 79.6043C203.955 79.5018 203.237 79.6875 202.558 79.6031C162.699 75.0321 126.901 105.446 112.289 140.769C111.411 142.708 109.11 147.575 109.11 147.575L109.746 143.478C109.746 143.478 109.078 141.643 110.048 139.714Z" fill="url(#paint11_linear_1_3400)"/>
<path d="M109.986 138.835C126.312 103.608 161.277 73.9406 201.869 79.5919C202.548 79.6775 203.264 79.495 203.929 79.5983C203.264 79.4958 202.546 79.6815 201.867 79.5972C161.145 74.039 126.219 104.976 111.608 140.3C110.729 142.238 108.428 147.106 108.428 147.106L108.427 143.433C108.427 143.433 109.015 140.764 109.986 138.835Z" fill="url(#paint12_linear_1_3400)"/>
<g style="mix-blend-mode:multiply">
<mask id="mask0_1_3400" style="mask-type:alpha" maskUnits="userSpaceOnUse" x="1" y="0" width="210" height="205">
<path d="M38.3484 147.019C-14.0993 104.225 5.72021 62.832 1.12821 5.85369C0.915232 3.21107 3.17378 1.01098 5.77609 1.51826C37.0484 7.61441 89.8504 32.0804 101.179 92.0183C106.295 119.085 103.698 156.188 103.649 202.176C103.647 203.504 101.945 204.058 101.149 202.994C91.6123 190.246 88.2818 187.761 38.3484 147.019Z" fill="url(#paint13_linear_1_3400)"/>
<path d="M35.1546 142.51C-9.80635 105.633 5.1984 53.9418 3.38894 7.80362C3.28749 5.2169 5.52091 3.1281 8.05736 3.64625C37.3725 9.63472 88.9527 34.9253 99.4353 90.3852C104.155 115.355 103.816 158.474 103.886 201.427C103.888 202.785 102.101 203.342 101.299 202.245C91.0655 188.261 78.0623 177.703 35.1546 142.51Z" fill="url(#paint14_linear_1_3400)"/>
<g opacity="0.6">
<path d="M103.906 202.305L103.781 153.199C103.764 146.626 102.347 140.052 99.1324 134.316C61.625 67.3793 3.40502 81.8228 3.40502 81.8228C3.40502 81.8228 4.24618 118.629 34.4915 142.366C51.7853 155.939 56.9177 161.695 74.2077 175.273C87.9869 186.093 96.9389 197.3 101.135 203.16C101.949 204.295 103.91 203.701 103.906 202.305Z" fill="url(#paint15_linear_1_3400)"/>
<path d="M103.906 202.305L103.781 153.199C103.764 146.626 102.347 140.052 99.1324 134.316C61.625 67.3793 3.40502 81.8228 3.40502 81.8228C3.40502 81.8228 4.24618 118.629 34.4915 142.366C51.7853 155.939 56.9177 161.695 74.2077 175.273C87.9869 186.093 96.9389 197.3 101.135 203.16C101.949 204.295 103.91 203.701 103.906 202.305Z" fill="url(#paint16_radial_1_3400)"/>
</g>
<path d="M102.092 141.258C85.7659 106.03 50.1729 75.4899 9.58147 81.1412C8.9023 81.2269 8.18591 81.0443 7.52087 81.1477C8.18609 81.0452 8.90367 81.2309 9.58302 81.1465C49.4415 76.5755 85.2399 106.989 99.8512 142.313C100.73 144.252 103.03 149.119 103.03 149.119L102.395 145.022C102.395 145.022 103.063 143.187 102.092 141.258Z" fill="url(#paint17_linear_1_3400)"/>
<path d="M102.767 140.79C86.4412 105.563 50.8567 75.4866 10.2652 81.1379C9.58604 81.2236 8.86965 81.041 8.20461 81.1443C8.86983 81.0418 9.58742 81.2275 10.2668 81.1432C50.9885 75.5851 85.9151 106.522 100.526 141.846C101.405 143.784 103.706 148.652 103.706 148.652L103.07 144.555C103.07 144.555 103.738 142.719 102.767 140.79Z" fill="#3F3F3F"/>
<path d="M1.39453 5.85657C1.18302 3.21382 3.44164 1.01334 6.04395 1.52063C37.3163 7.61691 90.1183 32.083 101.447 92.0206C106.554 119.036 104.725 157.594 104.713 203.557C104.713 204.91 102.96 205.442 102.192 204.328C101.715 203.636 101.253 202.971 100.8 202.326C98.7031 199.457 95.6309 195.543 91.5742 191.119C83.8866 183.317 70.7761 172.685 38.8799 147.276C-14.3523 104.87 5.95751 62.8711 1.39453 5.85657Z" fill="url(#paint18_radial_1_3400)"/>
<path d="M172.532 146.153C223.783 106.677 208.232 65.4146 210.217 4.61969C210.283 2.5892 208.88 0.783745 206.848 0.809524C184.042 1.09894 118.626 31.8467 111.365 92.4663C107.933 121.127 106.722 156.621 107.83 202.663C107.86 203.914 109.405 204.469 110.211 203.512C121.691 189.886 123.373 184.017 172.532 146.153Z" fill="url(#paint19_radial_1_3400)"/>
<path d="M172.532 146.153C223.783 106.677 208.232 65.4146 210.217 4.61969C210.283 2.5892 208.88 0.783745 206.848 0.809524C184.042 1.09894 118.626 31.8467 111.365 92.4663C107.933 121.127 106.722 156.621 107.83 202.663C107.86 203.914 109.405 204.469 110.211 203.512C121.691 189.886 123.373 184.017 172.532 146.153Z" fill="url(#paint20_radial_1_3400)"/>
<path d="M176.976 140.966C221.937 104.089 206.932 52.3979 208.742 6.25976C208.843 3.67304 206.61 1.58425 204.073 2.10239C174.758 8.09087 123.178 33.3815 112.696 88.8413C107.976 113.811 108.315 156.93 108.245 199.883C108.242 201.241 110.029 201.798 110.832 200.701C121.065 186.717 134.069 176.159 176.976 140.966Z" fill="url(#paint21_linear_1_3400)"/>
<path d="M108.231 201.229L108.358 151.655C108.375 145.082 109.792 138.508 113.006 132.772C150.514 65.8355 208.734 80.279 208.734 80.279C208.734 80.279 207.587 117.927 177.342 141.665C160.048 155.237 156.261 158.157 138.847 172.764C124.988 184.389 115.276 196.277 110.876 202.094C110.056 203.178 108.228 202.588 108.231 201.229Z" fill="url(#paint22_linear_1_3400)"/>
<path d="M108.231 201.229L108.358 151.655C108.375 145.082 109.792 138.508 113.006 132.772C150.514 65.8355 208.734 80.279 208.734 80.279C208.734 80.279 207.587 117.927 177.342 141.665C160.048 155.237 156.261 158.157 138.847 172.764C124.988 184.389 115.276 196.277 110.876 202.094C110.056 203.178 108.228 202.588 108.231 201.229Z" fill="url(#paint23_radial_1_3400)"/>
<path d="M110.048 139.714C126.375 104.487 161.968 73.9466 202.559 79.5979C203.238 79.6835 203.955 79.5009 204.62 79.6043C203.955 79.5018 203.237 79.6875 202.558 79.6031C162.699 75.0321 126.901 105.446 112.289 140.769C111.411 142.708 109.11 147.575 109.11 147.575L109.746 143.478C109.746 143.478 109.078 141.643 110.048 139.714Z" fill="url(#paint24_linear_1_3400)"/>
<path d="M109.986 138.834C126.312 103.607 161.277 73.9402 201.869 79.5915C202.548 79.6771 203.264 79.4946 203.929 79.5979C203.264 79.4954 202.546 79.6811 201.867 79.5967C161.145 74.0386 126.219 104.975 111.608 140.299C110.729 142.238 108.428 147.105 108.428 147.105L108.427 143.432C108.427 143.432 109.015 140.763 109.986 138.834Z" fill="url(#paint25_linear_1_3400)"/>
</mask>
<g mask="url(#mask0_1_3400)">
<rect x="-10.0566" y="-3.98471" width="254.412" height="235.486" fill="url(#paint26_linear_1_3400)"/>
</g>
</g>
<defs>
<filter id="filter0_f_1_3400" x="67.31" y="190.379" width="77.8311" height="47.6645" filterUnits="userSpaceOnUse" color-interpolation-filters="sRGB">
<feFlood flood-opacity="0" result="BackgroundImageFix"/>
<feBlend mode="normal" in="SourceGraphic" in2="BackgroundImageFix" result="shape"/>
<feGaussianBlur stdDeviation="9.65357" result="effect1_foregroundBlur_1_3400"/>
</filter>
<linearGradient id="paint0_linear_1_3400" x1="4.90232" y1="-4.14515" x2="107.396" y2="212.696" gradientUnits="userSpaceOnUse">
<stop stop-color="#F0F0F0"/>
<stop offset="1" stop-color="#686868"/>
</linearGradient>
<linearGradient id="paint1_linear_1_3400" x1="-12.5285" y1="14.6931" x2="101.15" y2="185.637" gradientUnits="userSpaceOnUse">
<stop stop-color="#F2F2F2"/>
<stop offset="0.226398" stop-color="#D4D4D4"/>
<stop offset="0.730106" stop-color="#404040"/>
<stop offset="1" stop-color="#343434"/>
</linearGradient>
<linearGradient id="paint2_linear_1_3400" x1="22.7944" y1="78.3825" x2="110.36" y2="191.331" gradientUnits="userSpaceOnUse">
<stop stop-color="#D0CFCF"/>
<stop offset="0.270601" stop-color="#D6D6D6"/>
<stop offset="1" stop-color="#888888"/>
</linearGradient>
<radialGradient id="paint3_radial_1_3400" cx="0" cy="0" r="1" gradientTransform="matrix(9.62361 105.043 78.9858 -7.12514 19.7843 85.6298)" gradientUnits="userSpaceOnUse">
<stop stop-color="#DBDBDB"/>
<stop offset="1" stop-color="#CBCBCA" stop-opacity="0"/>
</radialGradient>
<linearGradient id="paint4_linear_1_3400" x1="50.8255" y1="85.917" x2="56.6013" y2="150.931" gradientUnits="userSpaceOnUse">
<stop stop-color="#C8C8C8"/>
<stop offset="1" stop-color="#828282"/>
</linearGradient>
<radialGradient id="paint5_radial_1_3400" cx="0" cy="0" r="1" gradientTransform="matrix(44.6808 102.999 -87.9872 37.5841 8.78207 68.582)" gradientUnits="userSpaceOnUse">
<stop stop-color="white"/>
<stop offset="1" stop-color="#A5A5A5" stop-opacity="0"/>
</radialGradient>
<radialGradient id="paint6_radial_1_3400" cx="0" cy="0" r="1" gradientTransform="matrix(-50.8676 -26.6018 -119.367 224.745 210.349 52.2213)" gradientUnits="userSpaceOnUse">
<stop stop-color="#3A3A3A"/>
<stop offset="1" stop-color="white"/>
</radialGradient>
<radialGradient id="paint7_radial_1_3400" cx="0" cy="0" r="1" gradientTransform="matrix(-26.8086 130.281 148.621 30.1126 138.859 34.4868)" gradientUnits="userSpaceOnUse">
<stop stop-color="white"/>
<stop offset="1" stop-color="#292929" stop-opacity="0.75"/>
</radialGradient>
<linearGradient id="paint8_linear_1_3400" x1="224.659" y1="13.1492" x2="85.7449" y2="169.742" gradientUnits="userSpaceOnUse">
<stop stop-color="#696969"/>
<stop offset="0.269894" stop-color="#868685"/>
<stop offset="0.773602" stop-color="#BBB9B9"/>
</linearGradient>
<linearGradient id="paint9_linear_1_3400" x1="189.344" y1="76.8391" x2="109.434" y2="190.401" gradientUnits="userSpaceOnUse">
<stop stop-color="#8A8888"/>
<stop offset="0.270601" stop-color="#666565"/>
<stop offset="1" stop-color="#424141"/>
</linearGradient>
<radialGradient id="paint10_radial_1_3400" cx="0" cy="0" r="1" gradientTransform="matrix(-9.74714 104.18 -78.3367 -7.2166 192.478 84.9497)" gradientUnits="userSpaceOnUse">
<stop stop-color="#898887"/>
<stop offset="1" stop-color="#646060" stop-opacity="0"/>
</radialGradient>
<linearGradient id="paint11_linear_1_3400" x1="108.603" y1="146.162" x2="157.785" y2="77.1622" gradientUnits="userSpaceOnUse">
<stop stop-color="#3B3B3B"/>
<stop offset="1" stop-color="#484848" stop-opacity="0"/>
</linearGradient>
<linearGradient id="paint12_linear_1_3400" x1="109.285" y1="142.075" x2="157.114" y2="77.1638" gradientUnits="userSpaceOnUse">
<stop stop-color="#DEDEDE"/>
<stop offset="1" stop-color="#999999"/>
</linearGradient>
<linearGradient id="paint13_linear_1_3400" x1="4.90232" y1="-4.14556" x2="107.396" y2="212.696" gradientUnits="userSpaceOnUse">
<stop stop-color="#F0F0F0"/>
<stop offset="1" stop-color="#686868"/>
</linearGradient>
<linearGradient id="paint14_linear_1_3400" x1="-12.5285" y1="14.6927" x2="101.15" y2="185.637" gradientUnits="userSpaceOnUse">
<stop stop-color="#F2F2F2"/>
<stop offset="0.226398" stop-color="#D4D4D4"/>
<stop offset="0.730106" stop-color="#404040"/>
<stop offset="1" stop-color="#343434"/>
</linearGradient>
<linearGradient id="paint15_linear_1_3400" x1="22.7944" y1="78.3825" x2="110.36" y2="191.331" gradientUnits="userSpaceOnUse">
<stop stop-color="#D0CFCF"/>
<stop offset="0.270601" stop-color="#D6D6D6"/>
<stop offset="1" stop-color="#888888"/>
</linearGradient>
<radialGradient id="paint16_radial_1_3400" cx="0" cy="0" r="1" gradientTransform="matrix(9.62361 105.043 78.9858 -7.12514 19.7843 85.6298)" gradientUnits="userSpaceOnUse">
<stop stop-color="#DBDBDB"/>
<stop offset="1" stop-color="#CBCBCA" stop-opacity="0"/>
</radialGradient>
<linearGradient id="paint17_linear_1_3400" x1="50.8255" y1="85.9166" x2="56.6013" y2="150.931" gradientUnits="userSpaceOnUse">
<stop stop-color="#C8C8C8"/>
<stop offset="1" stop-color="#828282"/>
</linearGradient>
<radialGradient id="paint18_radial_1_3400" cx="0" cy="0" r="1" gradientTransform="matrix(44.6808 102.999 -87.9872 37.5841 8.78207 68.5821)" gradientUnits="userSpaceOnUse">
<stop stop-color="white"/>
<stop offset="1" stop-color="#A5A5A5" stop-opacity="0"/>
</radialGradient>
<radialGradient id="paint19_radial_1_3400" cx="0" cy="0" r="1" gradientTransform="matrix(-50.8676 -26.6018 -119.367 224.745 210.349 52.2209)" gradientUnits="userSpaceOnUse">
<stop stop-color="#3A3A3A"/>
<stop offset="1" stop-color="white"/>
</radialGradient>
<radialGradient id="paint20_radial_1_3400" cx="0" cy="0" r="1" gradientTransform="matrix(-26.8086 130.281 148.621 30.1126 138.859 34.4864)" gradientUnits="userSpaceOnUse">
<stop stop-color="white"/>
<stop offset="1" stop-color="#292929" stop-opacity="0.75"/>
</radialGradient>
<linearGradient id="paint21_linear_1_3400" x1="224.659" y1="13.1488" x2="85.7449" y2="169.741" gradientUnits="userSpaceOnUse">
<stop stop-color="#696969"/>
<stop offset="0.269894" stop-color="#868685"/>
<stop offset="0.773602" stop-color="#BBB9B9"/>
</linearGradient>
<linearGradient id="paint22_linear_1_3400" x1="189.344" y1="76.8387" x2="109.434" y2="190.4" gradientUnits="userSpaceOnUse">
<stop stop-color="#8A8888"/>
<stop offset="0.270601" stop-color="#666565"/>
<stop offset="1" stop-color="#424141"/>
</linearGradient>
<radialGradient id="paint23_radial_1_3400" cx="0" cy="0" r="1" gradientTransform="matrix(-9.74714 104.18 -78.3367 -7.2166 192.478 84.9493)" gradientUnits="userSpaceOnUse">
<stop stop-color="#898887"/>
<stop offset="1" stop-color="#646060" stop-opacity="0"/>
</radialGradient>
<linearGradient id="paint24_linear_1_3400" x1="108.603" y1="146.162" x2="157.785" y2="77.1622" gradientUnits="userSpaceOnUse">
<stop stop-color="#3B3B3B"/>
<stop offset="1" stop-color="#484848" stop-opacity="0"/>
</linearGradient>
<linearGradient id="paint25_linear_1_3400" x1="109.285" y1="142.074" x2="157.114" y2="77.1633" gradientUnits="userSpaceOnUse">
<stop stop-color="#DEDEDE"/>
<stop offset="1" stop-color="#999999"/>
</linearGradient>
<linearGradient id="paint26_linear_1_3400" x1="105.585" y1="191.628" x2="105.585" y2="209.588" gradientUnits="userSpaceOnUse">
<stop stop-color="#C2F6B8" stop-opacity="0"/>
<stop offset="1" stop-color="#8A9E72"/>
</linearGradient>
</defs>
</svg>
